<svg xmlns="http://www.w3.org/2000/svg" xmlns:xlink="http://www.w3.org/1999/xlink" width="512" height="512" viewBox="0 0 512 512">
  <defs>
    <clipPath id="canvas-clip">
      <rect width="512" height="512" rx="80" ry="80"/>
    </clipPath>
  </defs>
  <rect width="512" height="512" rx="80" ry="80" fill="#1E1B4B"  clip-path="url(#canvas-clip)"/>
  <g clip-path="url(#canvas-clip)">
    <g transform="rotate(0, 256, 256)">
      <g transform="translate(105 103) scale(1.19921875 1.19921875) translate(0 0)"><path fill="#1A3B70" d="M96 104a8 8 0 0 1 8-8h64a8 8 0 0 1 0 16h-64a8 8 0 0 1-8-8m8 40h64a8 8 0 0 0 0-16h-64a8 8 0 0 0 0 16m128 48a32 32 0 0 1-32 32H88a32 32 0 0 1-32-32V64a16 16 0 0 0-32 0c0 5.74 4.83 9.62 4.88 9.66A8 8 0 0 1 24 88a7.9 7.9 0 0 1-4.79-1.61C18.05 85.54 8 77.61 8 64a32 32 0 0 1 32-32h136a32 32 0 0 1 32 32v104h8a8 8 0 0 1 4.8 1.6c1.2.86 11.2 8.79 11.2 22.4M96.26 173.48A8.07 8.07 0 0 1 104 168h88V64a16 16 0 0 0-16-16H67.69A31.7 31.7 0 0 1 72 64v128a16 16 0 0 0 32 0c0-5.74-4.83-9.62-4.88-9.66a7.82 7.82 0 0 1-2.86-8.86M216 192a12.58 12.58 0 0 0-3.23-8h-94a27 27 0 0 1 1.21 8a31.8 31.8 0 0 1-4.29 16H200a16 16 0 0 0 16-16"/></g><g transform="translate(105 104) scale(1.19921875 1.19921875) translate(0 0)"><path fill="#1A3B70" d="M96 104a8 8 0 0 1 8-8h64a8 8 0 0 1 0 16h-64a8 8 0 0 1-8-8m8 40h64a8 8 0 0 0 0-16h-64a8 8 0 0 0 0 16m128 48a32 32 0 0 1-32 32H88a32 32 0 0 1-32-32V64a16 16 0 0 0-32 0c0 5.74 4.83 9.62 4.88 9.66A8 8 0 0 1 24 88a7.9 7.9 0 0 1-4.79-1.61C18.05 85.54 8 77.61 8 64a32 32 0 0 1 32-32h136a32 32 0 0 1 32 32v104h8a8 8 0 0 1 4.8 1.6c1.2.86 11.2 8.79 11.2 22.4M96.26 173.48A8.07 8.07 0 0 1 104 168h88V64a16 16 0 0 0-16-16H67.69A31.7 31.7 0 0 1 72 64v128a16 16 0 0 0 32 0c0-5.74-4.83-9.62-4.88-9.66a7.82 7.82 0 0 1-2.86-8.86M216 192a12.58 12.58 0 0 0-3.23-8h-94a27 27 0 0 1 1.21 8a31.8 31.8 0 0 1-4.29 16H200a16 16 0 0 0 16-16"/></g><g transform="translate(104 105) scale(1.19921875 1.19921875) translate(0 0)"><path fill="#1A3B70" d="M96 104a8 8 0 0 1 8-8h64a8 8 0 0 1 0 16h-64a8 8 0 0 1-8-8m8 40h64a8 8 0 0 0 0-16h-64a8 8 0 0 0 0 16m128 48a32 32 0 0 1-32 32H88a32 32 0 0 1-32-32V64a16 16 0 0 0-32 0c0 5.74 4.83 9.62 4.88 9.66A8 8 0 0 1 24 88a7.9 7.9 0 0 1-4.79-1.61C18.05 85.54 8 77.61 8 64a32 32 0 0 1 32-32h136a32 32 0 0 1 32 32v104h8a8 8 0 0 1 4.8 1.6c1.2.86 11.2 8.79 11.2 22.4M96.26 173.48A8.07 8.07 0 0 1 104 168h88V64a16 16 0 0 0-16-16H67.69A31.7 31.7 0 0 1 72 64v128a16 16 0 0 0 32 0c0-5.74-4.83-9.62-4.88-9.66a7.82 7.82 0 0 1-2.86-8.86M216 192a12.58 12.58 0 0 0-3.23-8h-94a27 27 0 0 1 1.21 8a31.8 31.8 0 0 1-4.29 16H200a16 16 0 0 0 16-16"/></g><g transform="translate(103 105) scale(1.19921875 1.19921875) translate(0 0)"><path fill="#1A3B70" d="M96 104a8 8 0 0 1 8-8h64a8 8 0 0 1 0 16h-64a8 8 0 0 1-8-8m8 40h64a8 8 0 0 0 0-16h-64a8 8 0 0 0 0 16m128 48a32 32 0 0 1-32 32H88a32 32 0 0 1-32-32V64a16 16 0 0 0-32 0c0 5.74 4.83 9.62 4.88 9.66A8 8 0 0 1 24 88a7.9 7.9 0 0 1-4.79-1.61C18.05 85.54 8 77.61 8 64a32 32 0 0 1 32-32h136a32 32 0 0 1 32 32v104h8a8 8 0 0 1 4.8 1.6c1.2.86 11.2 8.79 11.2 22.4M96.26 173.48A8.07 8.07 0 0 1 104 168h88V64a16 16 0 0 0-16-16H67.69A31.7 31.7 0 0 1 72 64v128a16 16 0 0 0 32 0c0-5.74-4.83-9.62-4.88-9.66a7.82 7.82 0 0 1-2.86-8.86M216 192a12.58 12.58 0 0 0-3.23-8h-94a27 27 0 0 1 1.21 8a31.8 31.8 0 0 1-4.29 16H200a16 16 0 0 0 16-16"/></g><g transform="translate(102 105) scale(1.19921875 1.19921875) translate(0 0)"><path fill="#1A3B70" d="M96 104a8 8 0 0 1 8-8h64a8 8 0 0 1 0 16h-64a8 8 0 0 1-8-8m8 40h64a8 8 0 0 0 0-16h-64a8 8 0 0 0 0 16m128 48a32 32 0 0 1-32 32H88a32 32 0 0 1-32-32V64a16 16 0 0 0-32 0c0 5.74 4.83 9.62 4.88 9.66A8 8 0 0 1 24 88a7.9 7.9 0 0 1-4.79-1.61C18.05 85.54 8 77.61 8 64a32 32 0 0 1 32-32h136a32 32 0 0 1 32 32v104h8a8 8 0 0 1 4.8 1.6c1.2.86 11.2 8.79 11.2 22.4M96.26 173.48A8.07 8.07 0 0 1 104 168h88V64a16 16 0 0 0-16-16H67.69A31.7 31.7 0 0 1 72 64v128a16 16 0 0 0 32 0c0-5.74-4.83-9.62-4.88-9.66a7.82 7.82 0 0 1-2.86-8.86M216 192a12.58 12.58 0 0 0-3.23-8h-94a27 27 0 0 1 1.21 8a31.8 31.8 0 0 1-4.29 16H200a16 16 0 0 0 16-16"/></g><g transform="translate(101 104) scale(1.19921875 1.19921875) translate(0 0)"><path fill="#1A3B70" d="M96 104a8 8 0 0 1 8-8h64a8 8 0 0 1 0 16h-64a8 8 0 0 1-8-8m8 40h64a8 8 0 0 0 0-16h-64a8 8 0 0 0 0 16m128 48a32 32 0 0 1-32 32H88a32 32 0 0 1-32-32V64a16 16 0 0 0-32 0c0 5.74 4.83 9.62 4.88 9.66A8 8 0 0 1 24 88a7.9 7.9 0 0 1-4.79-1.61C18.05 85.54 8 77.61 8 64a32 32 0 0 1 32-32h136a32 32 0 0 1 32 32v104h8a8 8 0 0 1 4.8 1.6c1.2.86 11.2 8.79 11.2 22.4M96.26 173.48A8.07 8.07 0 0 1 104 168h88V64a16 16 0 0 0-16-16H67.69A31.7 31.7 0 0 1 72 64v128a16 16 0 0 0 32 0c0-5.74-4.83-9.62-4.88-9.66a7.82 7.82 0 0 1-2.86-8.86M216 192a12.58 12.58 0 0 0-3.23-8h-94a27 27 0 0 1 1.21 8a31.8 31.8 0 0 1-4.29 16H200a16 16 0 0 0 16-16"/></g><g transform="translate(101 103) scale(1.19921875 1.19921875) translate(0 0)"><path fill="#1A3B70" d="M96 104a8 8 0 0 1 8-8h64a8 8 0 0 1 0 16h-64a8 8 0 0 1-8-8m8 40h64a8 8 0 0 0 0-16h-64a8 8 0 0 0 0 16m128 48a32 32 0 0 1-32 32H88a32 32 0 0 1-32-32V64a16 16 0 0 0-32 0c0 5.74 4.83 9.62 4.88 9.66A8 8 0 0 1 24 88a7.9 7.9 0 0 1-4.79-1.61C18.05 85.54 8 77.61 8 64a32 32 0 0 1 32-32h136a32 32 0 0 1 32 32v104h8a8 8 0 0 1 4.8 1.6c1.2.86 11.2 8.79 11.2 22.4M96.26 173.48A8.07 8.07 0 0 1 104 168h88V64a16 16 0 0 0-16-16H67.69A31.7 31.7 0 0 1 72 64v128a16 16 0 0 0 32 0c0-5.74-4.83-9.62-4.88-9.66a7.82 7.82 0 0 1-2.86-8.86M216 192a12.58 12.58 0 0 0-3.23-8h-94a27 27 0 0 1 1.21 8a31.8 31.8 0 0 1-4.29 16H200a16 16 0 0 0 16-16"/></g><g transform="translate(101 102) scale(1.19921875 1.19921875) translate(0 0)"><path fill="#1A3B70" d="M96 104a8 8 0 0 1 8-8h64a8 8 0 0 1 0 16h-64a8 8 0 0 1-8-8m8 40h64a8 8 0 0 0 0-16h-64a8 8 0 0 0 0 16m128 48a32 32 0 0 1-32 32H88a32 32 0 0 1-32-32V64a16 16 0 0 0-32 0c0 5.74 4.83 9.62 4.88 9.66A8 8 0 0 1 24 88a7.9 7.9 0 0 1-4.79-1.61C18.05 85.54 8 77.61 8 64a32 32 0 0 1 32-32h136a32 32 0 0 1 32 32v104h8a8 8 0 0 1 4.8 1.6c1.2.86 11.2 8.79 11.2 22.4M96.26 173.48A8.07 8.07 0 0 1 104 168h88V64a16 16 0 0 0-16-16H67.69A31.7 31.7 0 0 1 72 64v128a16 16 0 0 0 32 0c0-5.74-4.83-9.62-4.88-9.66a7.82 7.82 0 0 1-2.86-8.86M216 192a12.58 12.58 0 0 0-3.23-8h-94a27 27 0 0 1 1.21 8a31.8 31.8 0 0 1-4.29 16H200a16 16 0 0 0 16-16"/></g><g transform="translate(102 101) scale(1.19921875 1.19921875) translate(0 0)"><path fill="#1A3B70" d="M96 104a8 8 0 0 1 8-8h64a8 8 0 0 1 0 16h-64a8 8 0 0 1-8-8m8 40h64a8 8 0 0 0 0-16h-64a8 8 0 0 0 0 16m128 48a32 32 0 0 1-32 32H88a32 32 0 0 1-32-32V64a16 16 0 0 0-32 0c0 5.74 4.83 9.62 4.88 9.66A8 8 0 0 1 24 88a7.9 7.9 0 0 1-4.79-1.61C18.05 85.54 8 77.61 8 64a32 32 0 0 1 32-32h136a32 32 0 0 1 32 32v104h8a8 8 0 0 1 4.8 1.6c1.2.86 11.2 8.79 11.2 22.4M96.26 173.48A8.07 8.07 0 0 1 104 168h88V64a16 16 0 0 0-16-16H67.69A31.7 31.7 0 0 1 72 64v128a16 16 0 0 0 32 0c0-5.74-4.83-9.62-4.88-9.66a7.82 7.82 0 0 1-2.86-8.86M216 192a12.58 12.58 0 0 0-3.23-8h-94a27 27 0 0 1 1.21 8a31.8 31.8 0 0 1-4.29 16H200a16 16 0 0 0 16-16"/></g><g transform="translate(103 101) scale(1.19921875 1.19921875) translate(0 0)"><path fill="#1A3B70" d="M96 104a8 8 0 0 1 8-8h64a8 8 0 0 1 0 16h-64a8 8 0 0 1-8-8m8 40h64a8 8 0 0 0 0-16h-64a8 8 0 0 0 0 16m128 48a32 32 0 0 1-32 32H88a32 32 0 0 1-32-32V64a16 16 0 0 0-32 0c0 5.74 4.83 9.62 4.88 9.66A8 8 0 0 1 24 88a7.9 7.9 0 0 1-4.79-1.61C18.05 85.54 8 77.61 8 64a32 32 0 0 1 32-32h136a32 32 0 0 1 32 32v104h8a8 8 0 0 1 4.8 1.6c1.2.86 11.2 8.79 11.2 22.4M96.26 173.48A8.07 8.07 0 0 1 104 168h88V64a16 16 0 0 0-16-16H67.69A31.7 31.7 0 0 1 72 64v128a16 16 0 0 0 32 0c0-5.74-4.83-9.62-4.88-9.66a7.82 7.82 0 0 1-2.86-8.86M216 192a12.58 12.58 0 0 0-3.23-8h-94a27 27 0 0 1 1.21 8a31.8 31.8 0 0 1-4.29 16H200a16 16 0 0 0 16-16"/></g><g transform="translate(104 101) scale(1.19921875 1.19921875) translate(0 0)"><path fill="#1A3B70" d="M96 104a8 8 0 0 1 8-8h64a8 8 0 0 1 0 16h-64a8 8 0 0 1-8-8m8 40h64a8 8 0 0 0 0-16h-64a8 8 0 0 0 0 16m128 48a32 32 0 0 1-32 32H88a32 32 0 0 1-32-32V64a16 16 0 0 0-32 0c0 5.74 4.83 9.62 4.88 9.66A8 8 0 0 1 24 88a7.9 7.9 0 0 1-4.79-1.61C18.05 85.54 8 77.61 8 64a32 32 0 0 1 32-32h136a32 32 0 0 1 32 32v104h8a8 8 0 0 1 4.8 1.6c1.2.86 11.2 8.79 11.2 22.4M96.26 173.48A8.07 8.07 0 0 1 104 168h88V64a16 16 0 0 0-16-16H67.69A31.7 31.7 0 0 1 72 64v128a16 16 0 0 0 32 0c0-5.74-4.83-9.62-4.88-9.66a7.82 7.82 0 0 1-2.86-8.86M216 192a12.58 12.58 0 0 0-3.23-8h-94a27 27 0 0 1 1.21 8a31.8 31.8 0 0 1-4.29 16H200a16 16 0 0 0 16-16"/></g><g transform="translate(105 102) scale(1.19921875 1.19921875) translate(0 0)"><path fill="#1A3B70" d="M96 104a8 8 0 0 1 8-8h64a8 8 0 0 1 0 16h-64a8 8 0 0 1-8-8m8 40h64a8 8 0 0 0 0-16h-64a8 8 0 0 0 0 16m128 48a32 32 0 0 1-32 32H88a32 32 0 0 1-32-32V64a16 16 0 0 0-32 0c0 5.74 4.83 9.62 4.88 9.66A8 8 0 0 1 24 88a7.9 7.9 0 0 1-4.79-1.61C18.05 85.54 8 77.61 8 64a32 32 0 0 1 32-32h136a32 32 0 0 1 32 32v104h8a8 8 0 0 1 4.8 1.6c1.2.86 11.2 8.79 11.2 22.4M96.26 173.48A8.07 8.07 0 0 1 104 168h88V64a16 16 0 0 0-16-16H67.69A31.7 31.7 0 0 1 72 64v128a16 16 0 0 0 32 0c0-5.74-4.83-9.62-4.88-9.66a7.82 7.82 0 0 1-2.86-8.86M216 192a12.58 12.58 0 0 0-3.23-8h-94a27 27 0 0 1 1.21 8a31.8 31.8 0 0 1-4.29 16H200a16 16 0 0 0 16-16"/></g><g transform="translate(104 103) scale(1.19921875 1.19921875) translate(0 0)"><path fill="#1A3B70" d="M96 104a8 8 0 0 1 8-8h64a8 8 0 0 1 0 16h-64a8 8 0 0 1-8-8m8 40h64a8 8 0 0 0 0-16h-64a8 8 0 0 0 0 16m128 48a32 32 0 0 1-32 32H88a32 32 0 0 1-32-32V64a16 16 0 0 0-32 0c0 5.74 4.83 9.62 4.88 9.66A8 8 0 0 1 24 88a7.9 7.9 0 0 1-4.79-1.61C18.05 85.54 8 77.61 8 64a32 32 0 0 1 32-32h136a32 32 0 0 1 32 32v104h8a8 8 0 0 1 4.8 1.6c1.2.86 11.2 8.79 11.2 22.4M96.26 173.48A8.07 8.07 0 0 1 104 168h88V64a16 16 0 0 0-16-16H67.69A31.7 31.7 0 0 1 72 64v128a16 16 0 0 0 32 0c0-5.74-4.83-9.62-4.88-9.66a7.82 7.82 0 0 1-2.86-8.86M216 192a12.58 12.58 0 0 0-3.23-8h-94a27 27 0 0 1 1.21 8a31.8 31.8 0 0 1-4.29 16H200a16 16 0 0 0 16-16"/></g><g transform="translate(104 104) scale(1.19921875 1.19921875) translate(0 0)"><path fill="#1A3B70" d="M96 104a8 8 0 0 1 8-8h64a8 8 0 0 1 0 16h-64a8 8 0 0 1-8-8m8 40h64a8 8 0 0 0 0-16h-64a8 8 0 0 0 0 16m128 48a32 32 0 0 1-32 32H88a32 32 0 0 1-32-32V64a16 16 0 0 0-32 0c0 5.74 4.83 9.62 4.88 9.66A8 8 0 0 1 24 88a7.9 7.9 0 0 1-4.79-1.61C18.05 85.54 8 77.61 8 64a32 32 0 0 1 32-32h136a32 32 0 0 1 32 32v104h8a8 8 0 0 1 4.8 1.6c1.2.86 11.2 8.79 11.2 22.4M96.26 173.48A8.07 8.07 0 0 1 104 168h88V64a16 16 0 0 0-16-16H67.69A31.7 31.7 0 0 1 72 64v128a16 16 0 0 0 32 0c0-5.74-4.83-9.62-4.88-9.66a7.82 7.82 0 0 1-2.86-8.86M216 192a12.58 12.58 0 0 0-3.23-8h-94a27 27 0 0 1 1.21 8a31.8 31.8 0 0 1-4.29 16H200a16 16 0 0 0 16-16"/></g><g transform="translate(103 104) scale(1.19921875 1.19921875) translate(0 0)"><path fill="#1A3B70" d="M96 104a8 8 0 0 1 8-8h64a8 8 0 0 1 0 16h-64a8 8 0 0 1-8-8m8 40h64a8 8 0 0 0 0-16h-64a8 8 0 0 0 0 16m128 48a32 32 0 0 1-32 32H88a32 32 0 0 1-32-32V64a16 16 0 0 0-32 0c0 5.74 4.83 9.62 4.88 9.66A8 8 0 0 1 24 88a7.9 7.9 0 0 1-4.79-1.61C18.05 85.54 8 77.61 8 64a32 32 0 0 1 32-32h136a32 32 0 0 1 32 32v104h8a8 8 0 0 1 4.8 1.6c1.2.86 11.2 8.79 11.2 22.4M96.26 173.48A8.07 8.07 0 0 1 104 168h88V64a16 16 0 0 0-16-16H67.69A31.7 31.7 0 0 1 72 64v128a16 16 0 0 0 32 0c0-5.74-4.83-9.62-4.88-9.66a7.82 7.82 0 0 1-2.86-8.86M216 192a12.58 12.58 0 0 0-3.23-8h-94a27 27 0 0 1 1.21 8a31.8 31.8 0 0 1-4.29 16H200a16 16 0 0 0 16-16"/></g><g transform="translate(102 103) scale(1.19921875 1.19921875) translate(0 0)"><path fill="#1A3B70" d="M96 104a8 8 0 0 1 8-8h64a8 8 0 0 1 0 16h-64a8 8 0 0 1-8-8m8 40h64a8 8 0 0 0 0-16h-64a8 8 0 0 0 0 16m128 48a32 32 0 0 1-32 32H88a32 32 0 0 1-32-32V64a16 16 0 0 0-32 0c0 5.74 4.83 9.62 4.88 9.66A8 8 0 0 1 24 88a7.9 7.9 0 0 1-4.79-1.61C18.05 85.54 8 77.61 8 64a32 32 0 0 1 32-32h136a32 32 0 0 1 32 32v104h8a8 8 0 0 1 4.8 1.6c1.2.86 11.2 8.79 11.2 22.4M96.26 173.48A8.07 8.07 0 0 1 104 168h88V64a16 16 0 0 0-16-16H67.69A31.7 31.7 0 0 1 72 64v128a16 16 0 0 0 32 0c0-5.74-4.83-9.62-4.88-9.66a7.82 7.82 0 0 1-2.86-8.86M216 192a12.58 12.58 0 0 0-3.23-8h-94a27 27 0 0 1 1.21 8a31.8 31.8 0 0 1-4.29 16H200a16 16 0 0 0 16-16"/></g><g transform="translate(102 102) scale(1.19921875 1.19921875) translate(0 0)"><path fill="#1A3B70" d="M96 104a8 8 0 0 1 8-8h64a8 8 0 0 1 0 16h-64a8 8 0 0 1-8-8m8 40h64a8 8 0 0 0 0-16h-64a8 8 0 0 0 0 16m128 48a32 32 0 0 1-32 32H88a32 32 0 0 1-32-32V64a16 16 0 0 0-32 0c0 5.74 4.83 9.62 4.88 9.66A8 8 0 0 1 24 88a7.9 7.9 0 0 1-4.79-1.61C18.05 85.54 8 77.61 8 64a32 32 0 0 1 32-32h136a32 32 0 0 1 32 32v104h8a8 8 0 0 1 4.8 1.6c1.2.86 11.2 8.79 11.2 22.4M96.26 173.48A8.07 8.07 0 0 1 104 168h88V64a16 16 0 0 0-16-16H67.69A31.7 31.7 0 0 1 72 64v128a16 16 0 0 0 32 0c0-5.74-4.83-9.62-4.88-9.66a7.82 7.82 0 0 1-2.86-8.86M216 192a12.58 12.58 0 0 0-3.23-8h-94a27 27 0 0 1 1.21 8a31.8 31.8 0 0 1-4.29 16H200a16 16 0 0 0 16-16"/></g><g transform="translate(103 102) scale(1.19921875 1.19921875) translate(0 0)"><path fill="#1A3B70" d="M96 104a8 8 0 0 1 8-8h64a8 8 0 0 1 0 16h-64a8 8 0 0 1-8-8m8 40h64a8 8 0 0 0 0-16h-64a8 8 0 0 0 0 16m128 48a32 32 0 0 1-32 32H88a32 32 0 0 1-32-32V64a16 16 0 0 0-32 0c0 5.74 4.83 9.62 4.88 9.66A8 8 0 0 1 24 88a7.9 7.9 0 0 1-4.79-1.61C18.05 85.54 8 77.61 8 64a32 32 0 0 1 32-32h136a32 32 0 0 1 32 32v104h8a8 8 0 0 1 4.8 1.6c1.2.86 11.2 8.79 11.2 22.4M96.26 173.48A8.07 8.07 0 0 1 104 168h88V64a16 16 0 0 0-16-16H67.69A31.7 31.7 0 0 1 72 64v128a16 16 0 0 0 32 0c0-5.74-4.83-9.62-4.88-9.66a7.82 7.82 0 0 1-2.86-8.86M216 192a12.58 12.58 0 0 0-3.23-8h-94a27 27 0 0 1 1.21 8a31.8 31.8 0 0 1-4.29 16H200a16 16 0 0 0 16-16"/></g><g transform="translate(104 102) scale(1.19921875 1.19921875) translate(0 0)"><path fill="#1A3B70" d="M96 104a8 8 0 0 1 8-8h64a8 8 0 0 1 0 16h-64a8 8 0 0 1-8-8m8 40h64a8 8 0 0 0 0-16h-64a8 8 0 0 0 0 16m128 48a32 32 0 0 1-32 32H88a32 32 0 0 1-32-32V64a16 16 0 0 0-32 0c0 5.74 4.83 9.62 4.88 9.66A8 8 0 0 1 24 88a7.9 7.9 0 0 1-4.79-1.61C18.05 85.54 8 77.61 8 64a32 32 0 0 1 32-32h136a32 32 0 0 1 32 32v104h8a8 8 0 0 1 4.8 1.6c1.2.86 11.2 8.79 11.2 22.4M96.26 173.48A8.07 8.07 0 0 1 104 168h88V64a16 16 0 0 0-16-16H67.69A31.7 31.7 0 0 1 72 64v128a16 16 0 0 0 32 0c0-5.74-4.83-9.62-4.88-9.66a7.82 7.82 0 0 1-2.86-8.86M216 192a12.58 12.58 0 0 0-3.23-8h-94a27 27 0 0 1 1.21 8a31.8 31.8 0 0 1-4.29 16H200a16 16 0 0 0 16-16"/></g>
      <g transform="translate(103 103) scale(1.19921875 1.19921875) translate(0 0)"><path fill="#F0A21D" d="M96 104a8 8 0 0 1 8-8h64a8 8 0 0 1 0 16h-64a8 8 0 0 1-8-8m8 40h64a8 8 0 0 0 0-16h-64a8 8 0 0 0 0 16m128 48a32 32 0 0 1-32 32H88a32 32 0 0 1-32-32V64a16 16 0 0 0-32 0c0 5.74 4.83 9.62 4.88 9.66A8 8 0 0 1 24 88a7.9 7.9 0 0 1-4.79-1.61C18.05 85.54 8 77.61 8 64a32 32 0 0 1 32-32h136a32 32 0 0 1 32 32v104h8a8 8 0 0 1 4.8 1.6c1.2.86 11.2 8.79 11.2 22.4M96.26 173.48A8.07 8.07 0 0 1 104 168h88V64a16 16 0 0 0-16-16H67.69A31.7 31.7 0 0 1 72 64v128a16 16 0 0 0 32 0c0-5.74-4.83-9.62-4.88-9.66a7.82 7.82 0 0 1-2.86-8.86M216 192a12.58 12.58 0 0 0-3.23-8h-94a27 27 0 0 1 1.21 8a31.8 31.8 0 0 1-4.29 16H200a16 16 0 0 0 16-16"/></g>
    </g>
  </g>
</svg>